<svg xmlns="http://www.w3.org/2000/svg" width="512" height="512" viewBox="0 0 108 108">
  <rect width="108" height="108" rx="24" fill="#0A0A12"/>
  <circle cx="54" cy="54" r="26" fill="#FF9E2C" fill-opacity="0.25"/>
  <path d="M54,32 c-9.4,0 -17,7.6 -17,17 c0,6.6 3.8,12.3 9.3,15.1 c1.1,0.6 1.7,1.6 1.7,2.9 v2 h12 v-2 c0,-1.3 0.6,-2.3 1.7,-2.9 c5.5,-2.8 9.3,-8.5 9.3,-15.1 C71,39.6 63.4,32 54,32 z" fill="#FFC468"/>
  <path d="M50,44 l4,8 l4,-8" fill="none" stroke="#0A0A12" stroke-width="2.5" stroke-linecap="round" stroke-linejoin="round"/>
  <rect x="48" y="71" width="12" height="3" fill="#8A8A99"/>
  <rect x="49" y="76" width="10" height="3" fill="#8A8A99"/>
</svg>
